<?xml version="1.0" encoding="UTF-8"?>
<svg version="1.1" viewBox="0 0 1024 1024" width="1280" height="1280" xmlns="http://www.w3.org/2000/svg">
<path transform="translate(186,16)" d="m0 0h652l24 4 17 5 21 9 17 10 13 10 12 11 9 9 10 13 9 14 8 16 7 18 5 21 2 14v628l-4 24-6 20-9 20-11 18-9 11-9 10-10 10-17 13-21 12-20 8-18 5-20 3h-652l-20-3-21-6-17-7-18-10-16-12-10-9-12-12-12-16-10-17-9-21-6-21-3-20v-628l3-20 7-24 9-20 9-15 10-13 11-12 9-9 17-13 21-12 20-8 19-5z" fill="#320000"/>
<path transform="translate(365,238)" d="m0 0h112l3 5 19 54 15 42 17 48 44 124 17 48 22 62 15 42v6l-1 1h-93l-3-3-15-43-15-44-4-11-152-1-3 11-21 65-7 22-4 4h-85l-2-5 12-36 17-49 15-43 18-52 17-49 15-43 18-52 17-49 6-18 3-15 1-17z" fill="#FE9A00"/>
<path transform="translate(674,342)" d="m0 0h87l3 3v322l-3 3h-87l-2-2v-324z" fill="#FE9A00"/>
<path transform="translate(708,205)" d="m0 0h23l12 4 10 6 9 10 5 10 3 14v13l-3 14-5 10-7 9-10 7-13 5-6 1h-16l-12-3-10-5-10-9-6-10-4-11-1-6v-17l4-14 7-11 10-9 12-6z" fill="#FE9A00"/>
<path transform="translate(421,314)" d="m0 0 2 3 14 49 16 51 19 60 1 7h-103l12-37 20-64 12-40z" fill="#320000"/>
</svg>
