<?xml version="1.0" encoding="UTF-8"?>
<svg version="1.1" viewBox="0 0 2048 2048" width="1280" height="1280" xmlns="http://www.w3.org/2000/svg">
<path transform="translate(248)" d="m0 0h1552l27 3 24 5 30 10 18 8 21 11 15 10 12 9 13 11 13 12 12 13 11 14 9 13 8 13 12 23 8 20 8 26 5 27 2 20v1552l-3 27-5 24-10 30-8 18-11 21-10 15-9 12-11 13-12 13-13 12-14 11-13 9-13 8-23 12-20 8-26 8-27 5-20 2h-1552l-27-3-24-5-30-10-18-8-21-11-15-10-12-9-13-11-13-12-12-13-11-14-11-16-10-17-11-23-7-19-6-20-5-27-2-20v-1552l3-27 5-24 10-30 8-18 11-21 10-15 9-12 11-13 12-13 13-12 14-11 13-9 13-8 23-12 20-8 26-8 27-5z" fill="#553C7B"/>
<path transform="translate(577,404)" d="m0 0h613l40 2 46 5 35 6 28 6 27 8 27 10 31 15 21 13 16 12 13 11 17 17 11 14 10 14 10 17 8 16 6 14 8 24 6 26 4 27 2 24v50l-3 28-4 22-6 23-10 26-13 25-11 16-13 16-11 12-12 12-11 9-15 12-15 10-20 12-21 11h-2v2l10 2 28 10 27 12 18 10 16 10 16 12 11 9 13 12 8 8 18 22 12 18 11 19 12 25 9 25 7 24 6 31 3 25 1 13v53l-3 30-4 24-6 25-9 27-10 23-11 20-12 19-14 19-13 15-15 16-10 9-13 11-18 13-17 11-21 12-15 8-30 13-25 9-26 8-24 6-31 6-26 4-26 3-33 2h-626z" fill="#fff"/>
<path transform="translate(849,1092)" d="m0 0h319l28 3 25 5 27 9 21 10 14 9 14 11 10 10 11 15 9 17 7 19 5 22 3 23v46l-4 26-5 17-10 21-8 12-11 13-9 9-17 12-23 12-19 7-25 6-26 4-24 2h-312z" fill="#553C7B"/>
<path transform="translate(849,616)" d="m0 0h277l33 3 28 5 20 6 16 7 13 7 14 10 14 14 10 14 8 16 6 18 3 17 1 10v31l-3 24-5 19-8 19-7 11-8 10-11 11-14 10-16 9-20 8-17 5-22 4-23 2h-289z" fill="#553C7B"/>
</svg>
