<?xml version="1.0" encoding="UTF-8"?>
<svg version="1.1" viewBox="0 0 1400 1400" width="1280" height="1280" xmlns="http://www.w3.org/2000/svg">
<path transform="translate(133,67)" d="m0 0h1134l-17 194-82 929-1 10-23 7-441 126-9-1-207-59-252-72-2-1-15-168-85-964z" fill="#0277BD"/>
<path transform="translate(700,333)" d="m0 0h303v13l-18 288-21 345-1 5-219 72-43 14-11-3-243-80-10-4-1-6-9-165v-12h133l3 67 1 16 43 15 71 24 20 7 7-1 44-15 43-15 42-14 2-1 5-71 5-78-293-1-6-120v-13l306-1 10-132h-163l-297-1-9-120v-12z" fill="#FDFDFD"/>
<path transform="translate(700,167)" d="m0 0h456v13l-56 643-26 299-1 2-371 106h-2v-160l10-4 216-71 34-11h3l2-37 25-410 12-191 1-13h-303z" fill="#039AE5"/>
<path transform="translate(553,733)" d="m0 0h293l1 4-9 135-1 11-9 4-77 26-43 15-6 2-4-1h2v-195h-147z" fill="#039AE5"/>
<path transform="translate(700,467)" d="m0 0h163v12l-9 120-1 1h-153z" fill="#039AE5"/>
</svg>
