<?xml version="1.0" encoding="UTF-8"?>
<svg version="1.1" viewBox="0 0 1024 1024" width="1280" height="1280" xmlns="http://www.w3.org/2000/svg">
<path transform="translate(239,64)" d="m0 0h547l20 3 21 6 16 6 21 11 17 12 13 11 13 13 13 17 10 16 10 21 6 18 5 23 1 8v549l-3 20-6 22-6 15-8 16-10 16-13 16-17 17-17 13-15 9-21 10-18 6-23 5-8 1h-549l-20-3-22-6-15-6-16-8-16-10-16-13-17-17-13-17-9-15-10-21-6-18-5-23-1-8v-549l3-20 6-22 6-15 8-16 12-18 8-10 9-10 10-10 17-13 16-10 21-10 18-6 18-4z" fill="#2C2F37"/>
<path transform="translate(393,176)" d="m0 0h238l17 3 19 7 14 8 11 9 12 12 9 13 8 16 5 16 2 13v22l-3 17-7 19-8 14-9 11-12 12-13 9-16 8-16 5-13 2-22 1-20 4-16 6-15 9-10 8-11 11-7 10-7 12-6 16-4 20h-1v-97h-119l-17-3-19-7-14-8-11-9-12-12-9-13-8-16-5-16-2-13v-22l3-17 7-19 8-14 9-11 12-12 13-9 16-8 16-5z" fill="#FE7161"/>
<path transform="translate(396,392)" d="m0 0h116l1 90 5-19 6-14 7-11 8-10 12-12 15-10 14-7 17-5 12-2h22l20 4 16 6 15 9 10 8 12 12 10 15 7 14 5 17 2 12v22l-4 20-6 16-9 15-8 10-12 12-15 10-14 7-17 5-12 2h-22l-20-4-16-6-15-9-10-8-12-12-10-15-7-14-5-17-1-5-1 90-120 1v-1l-18-4-14-5-15-8-14-11-9-9-11-15-9-19-4-15-2-14v-17l3-18 5-15 9-17 11-14 9-9 15-11 19-9 15-4z" fill="#A159FE"/>
<path transform="translate(393,176)" d="m0 0h119v216h-119l-17-3-19-7-14-8-11-9-12-12-9-13-8-16-5-16-2-13v-22l3-17 7-19 8-14 9-11 12-12 13-9 16-8 16-5z" fill="#F24E1E"/>
<path transform="translate(396,608)" d="m0 0h116v120l-3 16-6 17-9 16-9 11-12 12-13 9-16 8-16 5-12 2h-24l-16-3-17-6-16-9-11-9-13-13-10-15-8-18-4-16-1-7v-24l3-16 6-17 9-16 9-11 13-13 15-10 18-8 16-4z" fill="#0ACE83"/>
<path transform="translate(609,392)" d="m0 0h22l20 4 16 6 15 9 10 8 12 12 10 15 7 14 5 17 2 12v22l-4 20-6 16-9 15-8 10-12 12-15 10-14 7-17 5-12 2h-22l-20-4-16-6-15-9-10-8-12-12-10-15-7-14-5-17-2-12v-22l4-20 6-16 9-15 8-10 12-12 15-10 14-7 17-5z" fill="#1ABCFE"/>
<path transform="translate(512,392)" d="m0 0h97v1l-20 4-16 6-15 9-10 8-11 11-7 10-7 12-6 16-4 20h-1z" fill="#2C2F37"/>
</svg>
