<?xml version="1.0" encoding="UTF-8"?>
<svg version="1.1" viewBox="0 0 2048 2048" width="1280" height="1280" xmlns="http://www.w3.org/2000/svg">
<path transform="translate(5,3)" d="m0 0h2042v2042h-2042z" fill="#25000C"/>
<path transform="translate(5,3)" d="m0 0h2042v2042h-2042zm90 90v1862h1862v-1862z" fill="#FE3E8D"/>
<path transform="translate(1317,550)" d="m0 0h158v893l-10 7-16 8-20 9-36 12-32 8-28 5-32 4-29 2h-56l-31-3-24-4-28-7-23-8-18-8-25-13-19-13-14-11-13-12-14-14-9-11-10-13-11-17-10-18-11-23-9-24-8-26-6-26-5-32-3-32-1-37 1-30 3-30 5-30 8-32 10-29 9-20 10-20 13-21 14-19 11-13 12-13 12-12 11-9 15-12 21-14 21-12 25-12 24-9 26-8 27-6 26-4 25-2h64z" fill="#FE3E8D"/>
<path transform="translate(578,550)" d="m0 0h154v936h-153l-1-1z" fill="#FE3E8D"/>
<path transform="translate(1260,916)" d="m0 0h19l21 3 12 4 5 3v435l-13 4-20 3-13 1h-26l-22-3-20-5-20-8-15-8-14-10-14-12-11-12-12-17-10-18-9-21-7-23-5-24-3-22-2-31v-27l2-28 4-26 6-25 8-22 9-19 10-16 11-14 12-13 14-12 15-10 21-11 22-8 21-5z" fill="#25000C"/>
</svg>
