<?xml version="1.0" encoding="UTF-8"?>
<svg version="1.1" viewBox="0 0 2048 2048" width="1280" height="1280" xmlns="http://www.w3.org/2000/svg">
<path transform="translate(104,104)" d="m0 0h1840v1840h-1840z" fill="#F0DB4F"/>
<path transform="translate(1488,939)" d="m0 0h36l34 3 23 4 26 7 19 7 25 12 19 12 16 13 10 9 16 16 9 11 14 19 13 21 2 5-19 12-75 48-17 11-22 14-3-1-9-15-8-11-9-11-10-10-14-10-17-8-19-5-7-1h-31l-18 4-14 6-10 7-9 8-9 14-5 12-2 9-1 15 2 18 4 13 7 13 11 12 9 8 15 10 26 14 36 16 53 23 24 11 25 12 26 14 21 13 16 11 12 9 13 11 10 9 12 12 9 11 11 15 11 19 8 17 9 27 5 23 3 25 1 31-2 30-4 23-6 22-6 16-10 21-10 16-9 12-12 14-13 13-11 9-18 13-21 12-21 10-28 10-27 7-28 5-27 3-19 1h-30l-31-2-30-4-28-6-25-7-25-9-28-13-19-11-15-10-16-12-14-12-15-14-9-10-11-13-13-18-12-19-8-15 1-3 104-60 24-14 10-6h2l10 16 12 16 9 11 12 13 8 7 17 13 16 9 15 7 18 6 19 4 17 2h33l21-3 15-4 16-6 14-8 10-8 8-8 9-14 5-13 2-10v-23l-4-17-7-14-7-9-6-7-14-11-16-10-23-12-25-12-49-21-34-15-30-14-22-12-20-12-20-14-16-13-12-11-15-15-11-14-12-18-12-23-8-21-6-21-5-30-1-12v-44l3-23 6-25 7-20 10-21 11-18 10-13 12-14 10-10 11-9 13-10 20-12 16-8 19-8 26-8 24-5 23-3z" fill="#323330"/>
<path transform="translate(933,949)" d="m0 0h172v615l-3 30-4 23-6 23-8 23-12 25-12 19-13 16-12 13-10 9-16 12-15 9-17 9-23 9-24 7-26 5-25 3-18 1h-28l-27-2-26-4-25-6-24-8-18-8-21-11-18-12-14-11-12-11-17-17-11-14-11-15-12-20-9-17v-3l20-12 28-17 30-18 28-17 25-15 8-5h2l13 23 10 15 10 13 11 12 13 10 15 8 17 5 6 1h35l20-4 16-7 10-8 7-7 8-14 5-12 4-17 2-15 1-22z" fill="#323330"/>
</svg>
