<?xml version="1.0" encoding="UTF-8"?>
<svg version="1.1" viewBox="0 0 2048 1927" width="1280" height="1280" xmlns="http://www.w3.org/2000/svg">
<path transform="translate(0)" d="m0 0h2048v1927h-2048z" fill="#052128"/>
<path transform="translate(0)" d="m0 0h2048v1927h-2048zm690 59-603 1-1 1v1760l1 72 5 1 1875 1v-1699l1-101v-35l-36-1z" fill="#00C5FC"/>
<path transform="translate(639,427)" d="m0 0h126l37 3 32 5 26 6 29 9 24 10 16 8 17 9 18 12 13 10 12 11 13 13 13 17 13 20 9 16 11 23 11 33 5 22 4 26 2 26v48l-2 22-3 19-6 25-6 19-8 21-8 17-8 14-10 16-8 11-9 12-12 13-6 7-8 7-12 10-17 12-19 11-20 11-19 8-19 7-23 7-24 6-27 5-25 3-37 2h-83l-1 334-4 2-56 1h-72l-20-1-3-3-1-55-1-181-1-116v-315l2-221 1-36 2-12 3-2 21-3 41-2z" fill="#00C5FC"/>
<path transform="translate(1371,665)" d="m0 0h45l40 3 37 6 24 6 16 6 13 7 3 3 2 10v126l-3 4-10-1-16-7-19-9-16-6-26-7-27-5-17-2h-49l-25 5-16 8-11 8-7 7-8 14-3 10v15l4 15 6 11 11 12 10 8 24 16 20 12 26 14 27 13 16 9 26 16 16 11 12 9 10 8 11 9 10 9 7 8 11 13 12 19 9 19 7 21 6 29 2 15v33l-6 34-6 22-8 21-10 19-11 16-11 12-6 7-8 7-12 10-18 11-19 10-20 8-29 9-28 6-25 3-15 1h-38l-32-3-38-6-31-8-36-12-16-7-6-5-3-8v-118l1-21 5-1 17 8 22 12 28 11 18 6 24 6 23 4 23 3 12 1h19l26-3 20-5 10-4 10-6 9-9 6-10 5-16v-20l-4-12-8-15-12-13-10-9-14-10-22-14-22-13-25-13-16-8-26-14-21-14-12-9-10-8-14-12-15-15-9-11-8-10-11-18-8-19-6-21-4-23-2-22 1-27 3-21 5-19 7-19 8-17 10-15 7-9 11-12 18-18 14-11 13-9 16-9 21-9 22-7 34-7 17-2z" fill="#00C5FC"/>
<path transform="translate(716,565)" d="m0 0h15l35 2 21 3 19 5 20 7 18 10 17 12 12 11 10 13 9 15 9 19 5 15 4 20 2 18v27l-3 26-5 22-8 22-10 19-10 13-9 10-9 8-22 13-20 9-19 6-25 5-15 2-13 1-52 1-39-1-3-1v-325l2-4 5-1 20-1z" fill="#052128"/>
<path transform="translate(639,427)" d="m0 0h126l37 3 32 5 26 6 29 9 24 10 16 8 17 9 18 12 13 10 12 11 13 13 13 17 13 20 9 16 11 23 11 33 5 22 4 26 2 26v48l-2 22-3 19-6 25-6 19-8 21-1-3 9-27 3-15 1-20 3-27 1-31v-40l-1-18-6-44-5-21-7-20-5-13-10-18-7-10-13-19-9-11-6-6v-2l-4-2-7-7-11-9-18-13-19-11-23-12-20-8-21-7-19-5-10-2-16-2-10-2-28-3-30-2-38-1h-40l-91 2-58 2-30 3-1 11-2 175-1 92v31l1 49v49l-1 99v64l2 367h100l49-1 1-1 1-305 1-28 3-2 26-1h47l48-2 5-1 16-1 21-4 7-1 6-2 15-3 19-6 21-7 18-8 16-8 18-11 10-7h2v-2l9-6 4-3h2v-2l8-7 3-3h2v-2l11-7 10-9 9-11 7-8v3l-10 13-12 13-6 7-8 7-12 10-17 12-19 11-20 11-19 8-19 7-23 7-24 6-27 5-25 3-37 2h-83l-1 334-4 2-56 1h-72l-20-1-3-3-1-55-1-181-1-116v-315l2-221 1-36 2-12 3-2 21-3 41-2z" fill="#00ACED"/>
<path transform="translate(1371,665)" d="m0 0h45l40 3 37 6 24 6 16 6 13 7 3 3 2 10v126l-3 4-10-1-10-4 3-1 9 1 5-5 1-13v-113l-2-5-5-2-11-5-23-7-23-4-30-3-33-2h-49l-26 1-22 3-27 7-21 7-18 8-17 9-16 12-7 7-8 7-10 10-8 11-6 9-6 15-4 7-6 18-4 9-6 24-2 6-1 7v32l3 26 7 30 9 28 4 6 4 7 12 17 12 13 11 11h-3l-18-18-9-11-8-10-11-18-8-19-6-21-4-23-2-22 1-27 3-21 5-19 7-19 8-17 10-15 7-9 11-12 18-18 14-11 13-9 16-9 21-9 22-7 34-7 17-2z" fill="#00ACED"/>
<path transform="translate(1968,60)" d="m0 0h1v50l-1 116v374l1 159v77l-1 1059h-1l-1-186v-1513l1-101z" fill="#00ACED"/>
<path transform="translate(1298,844)" d="m0 0 1 3-1 4v15l4 15 6 11 11 12 10 8 24 16 20 12 26 14 27 13 16 9 26 16 16 11 12 9 10 8 11 9 10 9 7 8 11 13 12 19 9 19 7 21 6 29 2 15v33l-6 34-6 22-8 21-10 19-11 16-11 12-6 7-8 7-12 10-18 11-19 10-20 8-29 9-28 6-25 3-15 1h-38l-32-3-38-6-20-5v-1l9 1 21 4 28 3 58 2h9l7-1 28-1 16-2 13-3 16-4 24-8 13-6 15-8 11-6 16-12 5-2v-2l7-4 15-15 9-11 11-17 8-16 8-21 7-30 2-16v-13l-1-25-2-26-5-21-7-20-11-21-10-13-5-8-2-1v-2h-2l-11-14-12-11-28-21-15-10-15-9-19-10-17-9-23-11-22-12-15-9-11-7-8-5v-2h-2v-2l-5-2-8-7-6-5v-2l-3-1-7-9-4-6-5-16-1-6v-9z" fill="#00ACED"/>
<path transform="translate(1151,1202)" d="m0 0 6 1 16 8 23 12 26 10 18 6 24 6 23 4 23 3 12 1h19l26-3 20-5 10-4 7-4 2 1-14 8-21 7-15 3-13 1h-50l-30-6-15-4-20-6-15-6-13-5-25-14-11-7-6-3h-4l-1 11-1 124 2 7 13 8 14 6 29 10-3 1-36-12-16-8-4-5-2-6v-118l1-21z" fill="#00ACED"/>
<path transform="translate(649,574)" d="m0 0h1v323l52 1 42-1 21-2 27-5 9-1-3 2-36 7-23 2h-83l-7-2-1-9-1-158v-36l1-97z" fill="#00ACED"/>
<path transform="translate(1368,793)" d="m0 0h40l21 2 30 7 27 8 18 7 1 2-9-3-27-8-23-5-19-3-10-1h-49l-25 5-16 8-11 8-6 5 2-4 8-8 18-11 16-6z" fill="#00ACED"/>
<path transform="translate(873,615)" d="m0 0 6 5 12 18 8 16 8 20 4 18 3 32v14l-3 28-5 22-7 21-8 16-8 13-8 9v-3l10-13 10-19 9-25 5-26 2-19v-27l-3-24-5-21-8-19-9-17-8-11-5-6z" fill="#00ACED"/>
<path transform="translate(1224,1026)" d="m0 0 4 2 19 14 15 10 15 9 14 8 16 8 19 9 20 11 9 6 10 7h-3l-17-10-14-8-21-11-16-8-26-14-21-14-12-9-10-8z" fill="#00ACED"/>
<path transform="translate(1379,1120)" d="m0 0 5 2 11 8 13 12 7 7 9 14 4 9 3 15-1 13-6 17-2 1 3-10 2-8v-20l-4-12-8-15-12-13-10-9-14-10z" fill="#00ACED"/>
</svg>
