<?xml version="1.0" encoding="UTF-8"?>
<svg version="1.1" viewBox="0 0 1000 1000" width="1280" height="1280" xmlns="http://www.w3.org/2000/svg">
<path transform="translate(488,222)" d="m0 0h24l23 2 24 4 26 7 24 9 25 12 18 11 17 12 13 11 5 5-15 2-10 4-9 7-6 7-6 12-3 14 1 15 5 16 12 23 10 16 10 19 6 16 4 17 1 6 1 18-2 22-6 28-12 40-20 63-8 26-2 2-26-78-14-41-25-75-14-41-20-60v-3l4-1 24-2 8-2 4-5v-9l-4-5-3-1-63 3h-29l-55-3h-7l-6 3-2 4v8l4 5 9 2 22 2 4 1 21 57 18 50 4 12-60 180h-2l-29-86-23-69-14-41-29-87-5-14v-2l4-1 24-2 9-2 4-6v-7l-3-5-5-2-62 3h-30l-2-1 2-5 13-17 12-14 18-18 11-9 17-13 16-10 16-9 19-9 25-9 28-7 27-4z" fill="#32373C"/>
<path transform="translate(478,167)" d="m0 0h44l29 3 29 6 25 7 26 10 25 12 18 10 15 10 19 14 15 13 13 12 8 8 7 8 11 13 13 18 11 17 10 18 12 25 11 30 8 32 4 24 2 21v44l-3 29-6 29-7 25-10 26-12 25-10 18-10 15-14 19-13 15-12 13-8 8-8 7-13 11-18 13-17 11-18 10-25 12-27 10-30 8-21 4-29 3h-44l-29-3-29-6-25-7-26-10-25-12-18-10-15-10-19-14-15-13-13-12-8-8-7-8-11-13-13-18-11-17-10-18-12-25-11-30-8-32-4-24-2-21v-44l3-29 6-29 7-25 10-26 12-25 10-18 10-15 14-19 13-15 12-13 8-8 8-7 13-11 18-13 17-11 18-10 25-12 30-11 32-8 24-4zm0 20-27 3-29 6-26 8-25 10-16 8-17 9-15 10-19 14-15 13-7 7-6 5-7 8-11 12-15 20-13 20-14 26-11 27-8 25-6 27-3 21-1 12v44l3 27 6 29 8 26 10 25 8 16 9 17 10 15 14 19 13 15 7 7 5 6 8 7 12 11 20 15 20 13 26 14 27 11 25 8 27 6 21 3 12 1h44l27-3 29-6 26-8 25-10 16-8 17-9 15-10 19-14 15-13 7-7 6-5 7-8 11-12 15-20 13-20 13-24 11-26 9-28 6-27 3-21 1-12v-44l-3-27-6-29-8-26-10-25-8-16-9-17-10-15-14-19-13-15-7-7-5-6-8-7-12-11-20-15-20-13-24-13-26-11-28-9-27-6-21-3-12-1z" fill="#32373C"/>
<path transform="translate(504,525)" d="m0 0 2 1 46 126 21 58 14 38 5 14-10 4-28 7-18 3-24 2h-24l-23-2-24-4-19-5 2-9 18-53 15-43 17-50 15-43z" fill="#32373C"/>
<path transform="translate(246,388)" d="m0 0 2 2 18 50 18 49 23 63 20 55 21 57 22 61 8 21v3l-6-2-18-10-19-13-16-13-12-11-15-15-9-11-10-13-11-17-10-18-9-19-9-25-7-28-3-19-2-23v-22l2-25 4-24 7-26 7-19z" fill="#32373C"/>
<path transform="translate(744,368)" d="m0 0 3 4 10 21 9 25 7 28 4 27 1 15v24l-2 23-4 24-7 26-9 24-12 25-11 18-10 14-8 10-11 13-18 18-11 9-13 10-18 12-4 2 3-11 23-67 15-43 22-64 15-43 10-28 7-21 6-25 3-20 1-17v-13z" fill="#32373C"/>
</svg>
