<?xml version="1.0" encoding="UTF-8"?>
<svg version="1.1" viewBox="0 0 2032 2048" width="1280" height="1280" xmlns="http://www.w3.org/2000/svg">
<path transform="translate(211)" d="m0 0h1618l26 2 30 5 25 7 20 8 17 9 14 10 14 12 10 11 11 15 10 18 7 16 8 24 5 23 3 21 2 29 1 275v1074l-1 267-2 29-5 30-6 21-8 20-12 22-8 12-12 16-9 10-7 8-11 10-18 13-20 11-21 8-22 6-29 2-37 4h-1478l-115-1-24-2-25-4-26-7-28-11-12-7-13-11-10-9-8-7-13-14-13-17-12-19-10-21-8-24-5-25-2-18-2-38v-1135l1-494 2-22 5-24 7-21 9-20 10-17 9-12 11-13 14-13 16-11 16-9 20-8 20-6 30-5 23-2z" fill="#FB7923"/>
<path transform="translate(1374,385)" d="m0 0h39l24 2 30 5 25 6 33 11 23 10 22 11 20 12 16 11 16 12 11 9 20 18 15 15 7 8 11 13 15 20 13 20 12 21 12 25 10 26 7 24 6 31 4 36 1 24v20l-2 39-5 41-7 38-8 33-9 31-10 29-12 29-10 23-1 4v10l5 12 10 16 13 24 12 28 10 30 7 29 5 34 1 12v58l-3 26-4 22-7 28-9 27-13 30-12 23-15 24-14 19-14 17-14 15-18 18-11 9-16 13-24 16-21 12-16 8-18 8-25 9-30 8-25 5-32 4-15 1h-37l-25-2-26-4-23-5-26-8-24-9-29-14-16-9-17-11-14-10-16-13-14-12-23-23-9-11-8-9-14-19-13-20-14-25-11-23-11-29-7-25-8-41-2-10-7 42-6 26-8 24-11 24-11 22-16 27-13 19-13 17-11 13-11 12-18 18-11 9-16 13-15 10-13 8-18 10-23 11-30 11-29 8-29 6-30 4-11 1h-52l-28-3-31-6-26-7-28-10-20-9-22-11-18-11-19-13-13-10-14-12-12-11-16-16-9-11-8-9-13-18-10-15-11-19-8-16-8-17-9-24-8-26-5-23-4-27-2-23v-59l4-50 4-30 6-30 8-31 8-25 9-25 10-23 12-25 4-11-1-9-7-12-8-13-10-18-10-21-10-26-8-27-6-29-3-22-2-27v-29l2-29 3-23 5-25 7-25 9-25 8-18 12-23 13-21 12-17 13-16 9-11 8-8 7-8 7-7 8-7 10-9 17-13 18-13 15-9 16-9 29-14 27-10 25-7 28-6 31-4 17-1h33l28 2 30 5 28 7 26 9 25 11 20 10 25 15 17 12 13 10 13 11 8 7 12 11 12 12 7 8 11 13 15 20 10 15 12 20 8 15 11 25 11 33 6 27 5 25 1 8h2v-7l9-48 7-26 9-25 11-25 12-22 12-19 10-14 10-13 12-14 11-12 17-17 8-7 17-14 17-12 17-11 16-9 17-9 28-12 31-10 25-6 24-4 16-2z" fill="#FFFFFE"/>
<path transform="translate(1383,635)" d="m0 0h20l20 3 16 5 17 8 12 8 14 12 11 13 8 13 6 12 5 15 3 15 1 9v50l-3 27-5 26-7 26-10 27-8 18-11 22-13 22-13 19-12 16-8 10-2 6 21 8 19 9 13 9 10 9 7 7 10 15 7 17 3 12 2 18 2 42v77l-2 39-3 20-5 15-8 16-9 12-9 10-7 7-14 10-14 8-19 7-19 4-11 1h-12l-21-3-21-7-16-8-14-10-13-12-10-12-9-15-7-16-4-14-2-15-1-128-2-6-8-2h-374l-21 3-18 5-17 8-16 12-7 7-10 14-8 16-5 13-5 22-3 32-4 27-5 16-7 16-8 12-12 14-7 7-16 12-14 8-16 6-13 3-8 1h-26l-18-3-15-4-18-8-13-9-10-9-8-8-11-16-9-17-8-22-3-14-1-7v-31l4-29 7-34 9-33 10-28 11-25 11-22 14-23 12-17 13-16 11-12 7-8 7-7 8-7 10-9 20-15 21-14 25-14 25-12 28-11 27-9 21-5 24-4 22-2 213-1 68-1 24-2 21-5 18-8 14-10 13-13 9-14 7-14 6-19 4-25 1-33 3-18 7-21 8-15 9-12 9-10 11-10 15-10 18-8 18-5z" fill="#FB7923"/>
<path transform="translate(633,642)" d="m0 0h28l20 4 19 7 19 10 16 12 11 11 10 14 10 21 5 18 2 15 1 14v113l-3 7-7 3h-114l-27-2-22-5-16-6-12-7-9-7-7-6-11-14-9-17-6-18-4-17-2-16v-24l3-18 5-15 9-17 9-12 11-12 13-11 15-10 19-9 14-4z" fill="#FB7923"/>
</svg>
